<svg xmlns="http://www.w3.org/2000/svg" viewBox="0 0 800 225" width="800" height="225">
	<style>
		tspan { white-space:pre }
		.shp0 { fill: #ff5722 } 
	</style>
	<path id="字节极客 " fill="#000000" d="M92.07 37.94Q101.56 37.94 115.8 41.11Q126.87 39.53 128.45 42.69Q134.78 53.76 130.04 55.35Q117.38 58.51 103.14 63.26Q103.14 64.84 107.89 69.58Q149.02 74.33 188.57 72.75Q183.82 101.22 166.42 94.9Q149.02 88.57 109.47 83.82Q115.8 112.3 92.07 126.54Q63.59 134.45 43.03 120.21Q38.28 115.46 35.12 110.72Q35.12 109.13 55.68 115.46Q58.85 115.46 62.01 115.46Q90.49 110.72 90.49 82.24Q31.95 86.99 5.06 93.31Q-4.43 94.9 5.06 79.08Q11.39 72.75 28.79 74.33Q57.26 74.33 85.74 69.58L77.83 61.67Q69.92 56.93 79.41 55.35Q87.32 53.76 96.81 58.51Q101.56 55.35 107.89 52.18Q111.05 45.85 93.65 45.85Q77.83 50.6 62.01 56.93Q52.52 60.09 50.94 50.6Q54.1 45.85 58.85 42.69Q73.08 41.11 92.07 37.94ZM163.26 26.87Q164.84 50.6 156.93 56.93Q153.77 60.09 150.6 55.35Q150.6 50.6 147.44 34.78Q147.44 30.03 99.98 28.45Q74.67 30.03 49.35 31.62Q36.7 31.62 33.53 37.94Q31.95 47.44 31.95 53.76Q27.21 63.26 24.04 56.93Q19.3 42.69 19.3 31.62Q20.88 15.8 30.37 17.38Q35.12 20.54 41.44 22.12Q57.26 20.54 82.58 18.96Q82.58 4.72 92.07 3.14Q95.23 3.14 98.4 4.72Q106.31 9.47 107.89 20.54Q126.87 22.12 145.86 22.12Q152.18 17.38 156.93 17.38Q163.26 18.96 163.26 26.87ZM220.21 18.96Q239.19 23.71 255.01 20.54Q264.51 20.54 262.92 15.8Q262.92 1.56 274 3.14Q280.33 4.72 281.91 9.47Q281.91 20.54 286.65 18.96Q296.15 20.54 311.97 18.96Q311.97 7.89 319.88 4.72Q330.95 3.14 332.53 14.21Q332.53 20.54 335.7 20.54Q354.68 22.12 365.75 22.12Q389.48 22.12 391.07 23.71Q389.48 28.45 384.74 34.78Q376.83 45.85 365.75 41.11L340.44 33.2Q332.53 30.03 330.95 33.2Q332.53 45.85 318.29 44.27Q311.97 44.27 311.97 34.78Q311.97 30.03 305.64 30.03Q296.15 28.45 286.65 30.03Q283.49 30.03 281.91 37.94Q281.91 44.27 272.42 44.27Q262.92 44.27 262.92 34.78Q264.51 30.03 256.6 31.62Q228.12 33.2 209.14 39.53Q199.64 42.69 201.23 31.62Q209.14 17.38 220.21 18.96ZM302.47 60.09Q300.89 69.58 302.47 98.06Q321.46 93.31 335.7 79.08Q345.19 69.58 337.28 61.67Q324.62 58.51 302.47 60.09ZM245.52 45.85Q251.85 47.44 261.34 49.02Q294.56 52.18 332.53 50.6Q337.28 50.6 345.19 49.02Q364.17 49.02 362.59 63.26Q359.43 85.4 340.44 96.48Q326.2 102.81 311.97 104.39Q305.64 104.39 302.47 101.22L302.47 120.21Q300.89 131.28 291.4 131.28Q280.33 131.28 281.91 117.04Q285.07 74.33 278.74 60.09Q256.6 56.93 234.45 66.42Q228.12 66.42 229.7 58.51Q237.61 45.85 245.52 45.85ZM443.27 31.62L443.27 12.63Q444.85 6.3 451.18 6.3Q463.84 9.47 462.26 17.38L462.26 31.62L474.91 31.62Q481.24 33.2 481.24 36.36Q481.24 41.11 476.49 42.69L462.26 42.69L462.26 47.44Q476.49 61.67 484.4 66.42Q484.4 68 484.4 71.17Q482.82 74.33 478.08 72.75Q471.75 69.58 462.26 64.84L462.26 121.79Q459.09 131.28 454.35 129.7Q443.27 131.28 443.27 120.21L443.27 68Q432.2 88.57 421.12 94.9Q408.47 101.22 400.56 86.99Q430.62 72.75 441.69 44.27Q432.2 42.69 422.71 47.44Q416.38 49.02 417.96 42.69Q419.54 33.2 427.45 30.03Q432.2 33.2 443.27 31.62ZM536.61 20.54Q542.94 20.54 546.1 18.96Q555.59 17.38 555.59 28.45Q547.68 37.94 539.77 47.44Q542.94 52.18 550.85 50.6Q561.92 50.6 560.34 60.09Q555.59 75.91 547.68 90.15Q560.34 98.06 574.58 102.81Q596.73 107.55 596.73 110.72Q593.56 117.04 587.23 121.79Q576.16 131.28 566.67 124.95Q557.18 113.88 539.77 99.64Q519.21 118.63 493.9 117.04Q485.99 117.04 484.4 112.3Q485.99 107.55 490.73 107.55Q512.88 107.55 530.28 91.73Q520.79 83.82 508.13 74.33Q493.9 104.39 478.08 109.13Q468.58 110.72 465.42 105.97Q479.66 98.06 497.06 66.42Q503.39 47.44 501.81 33.2Q495.48 34.78 490.73 36.36Q482.82 34.78 489.15 23.71Q493.9 15.8 500.22 17.38Q511.3 22.12 536.61 20.54ZM536.61 82.24Q544.52 74.33 546.1 63.26Q546.1 58.51 541.36 58.51Q535.03 58.51 530.28 55.35Q525.54 50.6 530.28 45.85Q533.45 41.11 536.61 36.36Q538.19 31.62 531.86 30.03Q523.95 30.03 514.46 31.62Q514.46 42.69 511.3 61.67Q525.54 74.33 536.61 82.24ZM641.02 17.38Q645.77 22.12 653.68 22.12Q669.5 20.54 685.32 20.54Q685.32 14.21 685.32 12.63Q686.9 4.72 696.39 4.72Q699.56 4.72 704.3 7.89Q709.05 9.47 709.05 20.54L742.27 22.12Q745.43 22.12 748.6 22.12Q753.34 22.12 758.09 15.8Q762.84 12.63 769.16 18.96Q773.91 31.62 772.33 47.44Q770.75 55.35 764.42 56.93Q759.67 56.93 756.51 44.27Q756.51 39.53 754.93 33.2Q751.76 30.03 701.14 30.03Q705.88 33.2 701.14 36.36Q709.05 37.94 718.54 41.11Q723.29 41.11 728.03 41.11Q732.78 41.11 734.36 47.44Q734.36 52.18 729.61 55.35Q723.29 58.51 720.12 60.09Q740.69 69.58 756.51 74.33Q781.82 80.66 799.22 82.24Q799.22 88.57 786.57 101.22Q778.66 110.72 766 102.81Q753.34 94.9 732.78 82.24Q721.7 74.33 709.05 68Q686.9 77.49 664.75 85.4Q693.23 83.82 721.7 85.4Q728.03 83.82 734.36 85.4Q740.69 88.57 742.27 93.31Q747.02 99.64 745.43 120.21Q743.85 124.95 739.11 126.54Q731.2 128.12 726.45 124.95Q704.3 120.21 666.33 128.12Q663.17 129.7 658.42 126.54Q655.26 124.95 655.26 117.04Q655.26 96.48 652.1 91.73Q634.69 98.06 625.2 99.64Q612.55 101.22 603.05 94.9Q601.47 93.31 601.47 91.73Q601.47 88.57 612.55 86.99Q653.68 80.66 693.23 60.09Q682.15 53.76 674.24 52.18Q664.75 56.93 653.68 58.51Q648.93 58.51 647.35 55.35Q650.51 52.18 653.68 50.6Q660.01 47.44 667.92 44.27Q683.74 36.36 688.48 30.03Q674.24 28.45 658.42 31.62Q641.02 33.2 636.28 41.11Q634.69 50.6 633.11 60.09Q626.78 63.26 625.2 53.76Q623.62 45.85 623.62 37.94Q623.62 30.03 625.2 23.71Q629.95 12.63 641.02 17.38ZM671.08 104.39Q672.66 110.72 680.57 110.72Q701.14 110.72 721.7 110.72Q728.03 110.72 728.03 105.97Q729.61 98.06 721.7 94.9Q701.14 93.31 677.41 94.9Q671.08 96.48 671.08 104.39ZM704.3 55.35Q712.21 55.35 713.79 49.02Q713.79 45.85 702.72 44.27Q694.81 42.69 685.32 47.44Q694.81 50.6 704.3 55.35Z" />
	<path id="Byte  geek " fill="#000000" d="M29.73 204.89L8.42 204.89L20.65 146.95L40.03 146.95Q48.84 146.95 53.33 148.62Q57.92 150.29 59.14 153.71Q60.47 157.05 59.35 162.31Q58.4 166.82 55.5 169.99Q52.61 173.16 46.98 174.58L46.91 174.92Q53.54 176.09 55.3 179.68Q57.18 183.18 56.08 188.36Q54.97 193.62 52.16 197.29Q49.35 200.96 43.99 202.97Q38.64 204.89 29.73 204.89ZM28.03 153.3L24.01 172.33L30.6 172.33Q40.29 172.33 44.86 170.41Q49.54 168.41 50.74 162.73Q51.64 158.47 50.22 156.47Q48.81 154.47 44.96 153.88Q41.11 153.3 34.62 153.3L28.03 153.3ZM22.76 178.26L18.49 198.46L27.5 198.46Q34.38 198.46 38.43 197.62Q42.48 196.79 44.49 194.62Q46.52 192.36 47.38 188.27Q48.14 184.68 46.95 182.51Q45.86 180.34 42.2 179.34Q38.65 178.26 31.77 178.26L22.76 178.26ZM62.53 221.58L63.84 215.4Q70.72 215.4 74.56 212.82Q78.4 210.23 81.48 204.8L70.06 159.81L79.06 159.81L87.15 197.21L87.73 197.21L110.74 159.81L119.17 159.81L91.18 203.38Q87.57 208.98 83.9 213.07Q80.23 217.16 75.2 219.41Q70.28 221.58 62.53 221.58ZM136.88 199.38Q138.62 199.38 139.9 199.29Q141.29 199.13 142.7 198.88L141.41 204.97Q139.82 205.14 138.43 205.3Q137.06 205.39 135.41 205.39Q129.7 205.39 126.44 204.3Q123.18 203.22 122.28 200.13Q121.48 197.04 122.73 191.11L128.07 165.82L120.32 165.82L121.59 159.81L129.34 159.81L131.6 149.12L139.93 149.12L137.67 159.81L150.66 159.81L149.39 165.82L136.41 165.82L131.15 190.7Q130.41 194.2 130.59 196.12Q130.78 197.96 132.17 198.71Q133.68 199.38 136.88 199.38ZM199.36 177.84Q199.16 178.76 198.67 180.18Q198.29 181.51 197.76 183.1L161.9 185.02Q160.44 192.36 163.29 195.87Q166.13 199.38 175.63 199.38Q179.89 199.38 184.62 198.54Q189.35 197.71 192.61 196.46L191.22 203.05Q188.78 204.05 183.67 204.89Q178.65 205.72 173.03 205.72Q165.37 205.72 160.39 203.63Q155.4 201.55 153.57 196.46Q151.86 191.28 153.74 182.35Q155.65 173.33 159.53 168.24Q163.42 163.15 169.19 161.06Q174.95 158.97 182.41 158.97Q189.1 158.97 192.81 160.64Q196.63 162.31 198.26 165.15Q199.9 167.91 199.97 171.24Q200.04 174.58 199.36 177.84ZM163.03 179.68L191.1 177.92Q191.84 174.42 191.59 171.5Q191.45 168.49 189.11 166.74Q186.88 164.9 181.16 164.9Q175.16 164.9 171.57 166.74Q168 168.49 166.04 171.83Q164.19 175.08 163.03 179.68ZM301.26 168.24L303.04 159.81L311.37 159.81L302.52 201.71Q300.55 211.06 293.24 216.32Q286.02 221.58 272.75 221.58Q269.46 221.58 266.04 221.25Q262.72 220.91 260.29 220.5L261.58 214.4Q267.37 215.4 274.15 215.4Q282.87 215.4 287.74 212.07Q292.71 208.73 294.35 200.96L295.3 196.46Q292.92 200.38 288.48 202.63Q284.13 204.89 276.57 204.89Q267.85 204.89 263.7 202.05Q259.67 199.13 258.92 193.95Q258.27 188.78 259.72 181.93Q260.7 177.26 262.54 173.16Q264.39 168.99 267.38 165.82Q270.49 162.56 275.12 160.81Q279.77 158.97 286.26 158.97Q294.21 158.97 297.33 161.64Q300.56 164.23 301.26 168.24ZM279 198.88Q285.3 198.88 289.21 196.87Q293.12 194.87 295.27 191.11Q297.53 187.27 298.66 181.93Q299.75 176.75 299.09 173Q298.55 169.16 295.5 167.07Q292.46 164.98 286.16 164.98Q281.41 164.98 278.3 166.4Q275.31 167.74 273.34 170.16Q271.48 172.58 270.34 175.67Q269.32 178.67 268.63 181.93Q267.64 186.6 267.69 190.53Q267.84 194.37 270.37 196.62Q272.9 198.88 279 198.88ZM366.76 177.84Q366.56 178.76 366.07 180.18Q365.69 181.51 365.16 183.1L329.3 185.02Q327.85 192.36 330.69 195.87Q333.53 199.38 343.03 199.38Q347.29 199.38 352.02 198.54Q356.75 197.71 360.02 196.46L358.62 203.05Q356.18 204.05 351.07 204.89Q346.05 205.72 340.43 205.72Q332.77 205.72 327.79 203.63Q322.81 201.55 320.98 196.46Q319.26 191.28 321.14 182.35Q323.05 173.33 326.93 168.24Q330.82 163.15 336.59 161.06Q342.36 158.97 349.82 158.97Q356.5 158.97 360.22 160.64Q364.03 162.31 365.66 165.15Q367.3 167.91 367.37 171.24Q367.44 174.58 366.76 177.84ZM330.43 179.68L358.5 177.92Q359.24 174.42 358.99 171.5Q358.85 168.49 356.51 166.74Q354.28 164.9 348.56 164.9Q342.56 164.9 338.97 166.74Q335.41 168.49 333.44 171.83Q331.59 175.08 330.43 179.68ZM422.75 177.84Q422.56 178.76 422.06 180.18Q421.68 181.51 421.16 183.1L385.29 185.02Q383.84 192.36 386.68 195.87Q389.53 199.38 399.02 199.38Q403.28 199.38 408.01 198.54Q412.74 197.71 416.01 196.46L414.62 203.05Q412.18 204.05 407.06 204.89Q402.04 205.72 396.42 205.72Q388.77 205.72 383.78 203.63Q378.8 201.55 376.97 196.46Q375.25 191.28 377.14 182.35Q379.04 173.33 382.93 168.24Q386.81 163.15 392.58 161.06Q398.35 158.97 405.81 158.97Q412.49 158.97 416.21 160.64Q420.02 162.31 421.65 165.15Q423.3 167.91 423.37 171.24Q423.44 174.58 422.75 177.84ZM386.42 179.68L414.5 177.92Q415.24 174.42 414.98 171.5Q414.84 168.49 412.5 166.74Q410.27 164.9 404.56 164.9Q398.55 164.9 394.97 166.74Q391.4 168.49 389.44 171.83Q387.59 175.08 386.42 179.68ZM480.81 159.81L454.39 180.76L472.45 204.89L461.7 204.89L447.06 183.85L444.25 183.85L439.8 204.89L431.47 204.89L444.87 141.44L453.2 141.44L445.43 178.26L448.43 178.26L470.44 159.81L480.81 159.81Z" />
	<path id="形状 1" class="shp0" d="M502 150L800 150L800 207.15L502 207.15L502 150Z" />
</svg>